# xmcd
#
# Track frame offsets: 
#        150
#        15036
#        30019
#        48427
#        63229
#        78004
#        93518
#        109899
#        125456
#        138385
#        152996
#        165560
#
# Disc length: 2405 seconds
#
# Revision: 0
# Processed by: cddbd v1.5.1PL0 Copyright (c) Steve Scherf et al.
# Submitted via: ExactAudioCopy v0.95a5
#
DISCID=8309630c
DTITLE=Rick Jamison and Copper Canyon - Tales From The Canyon
DYEAR=2004
DGENRE=Bluegrass
TTITLE0=Somethin He Done (Rick Jamison)
TTITLE1=Two Hearts Broken (Rick Jamison)
TTITLE2=Snowfall on Cedar (Rick Jamison and Phil Cornish)
TTITLE3=The Changing Scene (Phil Cornish)
TTITLE4=Round the World (Rick Jamison)
TTITLE5=Cornstalk Hornpipe (Phil Cornish)
TTITLE6=Somewhere Bound (Rick Jamison)
TTITLE7=Left Me All Alone (Phil Cornish)
TTITLE8=Pepper Boy (Rick Jamison)
TTITLE9=Travels in Time (Phil Cornish)
TTITLE10=Love Letters and Pain (Phil Cornish and Eric Guest)
TTITLE11=Wild Winds (Rick Jamison)
EXTD=
EXTT0=
EXTT1=
EXTT2=
EXTT3=
EXTT4=
EXTT5=
EXTT6=
EXTT7=
EXTT8=
EXTT9=
EXTT10=
EXTT11=
PLAYORDER=
